Coordinates
version=1
nRows=14
nColumns=24
inDegrees=yes

Units are S.I. units (second, meters, Newtons, ...)
Angles are in degrees.

endheader
time	pelvis_tilt	pelvis_list	pelvis_rotation	pelvis_tx	pelvis_ty	pelvis_tz	hip_flexion_r	hip_adduction_r	hip_rotation_r	knee_angle_r	ankle_angle_r	subtalar_angle_r	mtp_angle_r	hip_flexion_l	hip_adduction_l	hip_rotation_l	knee_angle_l	ankle_angle_l	subtalar_angle_l	mtp_angle_l	lumbar_extension	lumbar_bending	lumbar_rotation
      2.30000000	     -5.85451464	     -0.57820830	      1.27993393	      0.62833575	      1.22405659	     -0.82164818	      3.57592875	      4.51760279	     -7.31160426	    -42.73339502	     -2.75609502	      4.88081250	     30.18974056	     28.96836483	      9.67185425	     12.18425546	    -20.49151356	     -9.89798075	     -9.53476673	      6.82357773	     -4.14262257	     -2.11490343	      1.34140985
      2.30500000	     -5.75491606	     -0.28676354	      1.54839413	      0.63479160	      1.22454418	     -0.82211118	      4.37420510	      3.80898494	     -7.96414383	    -44.49579618	     -4.49805042	      4.70879311	     30.37583171	     28.53274365	     10.17296819	     12.41115366	    -20.85492658	     -9.69432435	     -9.64242641	      6.82264696	     -4.15043166	     -2.54289962	      1.16980588
      2.31000000	     -5.65427396	     -0.00423040	      1.80076443	      0.64120205	      1.22507961	     -0.82257224	      5.16352239	      3.12175264	     -8.51625264	    -46.16533658	     -6.16315191	      4.45039474	     30.16866890	     28.04444951	     10.64454242	     12.61710597	    -21.12742447	     -9.46264781	     -9.73602757	      6.83570776	     -4.16406058	     -2.94672181	      1.02362389
      2.31500000	     -5.56585209	      0.25548759	      2.04856739	      0.64754932	      1.22563512	     -0.82302486	      5.96064800	      2.47311780	     -8.99529217	    -47.74380495	     -7.69681048	      4.09163509	     29.59149775	     27.54070045	     11.07606861	     12.80736775	    -21.34457463	     -9.17181415	     -9.76880675	      6.89792791	     -4.17327454	     -3.31641096	      0.87230038
      2.32000000	     -5.44744940	      0.51774753	      2.26927118	      0.65384769	      1.22626175	     -0.82344212	      6.71061778	      1.83999268	     -9.37804509	    -49.23121436	     -9.04222010	      3.84048035	     28.30895879	     26.95355631	     11.47446700	     12.94290561	    -21.46837944	     -8.83064244	     -9.70866417	      6.99899879	     -4.21706290	     -3.67912554	      0.76863576
      2.32500000	     -5.40023314	      0.71019178	      2.50360028	      0.66004994	      1.22683657	     -0.82390924	      7.54561424	      1.30716307	     -9.70992161	    -50.61263605	    -10.08809739	      3.19753881	     27.55162353	     26.46180036	     11.81518680	     13.11631369	    -21.61848750	     -8.44102046	     -9.69929154	      7.10004272	     -4.20096676	     -3.95207967	      0.62171327
      2.33000000	     -5.31260437	      0.90338336	      2.70386783	      0.66618977	      1.22750973	     -0.82431974	      8.32424050	      0.79745005	     -9.95301747	    -51.90283886	    -10.94873015	      2.76245161	     25.88397906	     25.87216544	     12.11065947	     13.23023593	    -21.66240938	     -8.00585782	     -9.53182446	      7.23978911	     -4.23378892	     -4.22108996	      0.52375509
      2.33500000	     -5.26585533	      1.04932596	      2.90291155	      0.67224510	      1.22816455	     -0.82475644	      9.15209865	      0.36200876	    -10.15490711	    -53.09099437	    -11.48039399	      2.07438917	     24.51228033	     25.33383522	     12.35686772	     13.35004592	    -21.70969702	     -7.54897728	     -9.37245115	      7.37156184	     -4.22888253	     -4.42371199	      0.41470690
      2.34000000	     -5.23035383	      1.16173015	      3.08911570	      0.67819920	      1.22882904	     -0.82518448	      9.99433333	     -0.01286991	    -10.30631139	    -54.17811697	    -11.73078098	      1.28953401	     23.10441431	     24.80695280	     12.55428132	     13.45888483	    -21.74206101	     -7.05967423	     -9.17630247	      7.50560664	     -4.23228858	     -4.58076673	      0.31322501
      2.34500000	     -5.24512030	      1.23208542	      3.25665400	      0.68405142	      1.22945580	     -0.82560186	     10.90985925	     -0.31129957	    -10.39596173	    -55.16817105	    -11.72872748	      0.27447457	     22.07476409	     24.35657933	     12.70107473	     13.53488563	    -21.79367973	     -6.59023111	     -9.03705798	      7.64362206	     -4.19690863	     -4.68071792	      0.18267409
      2.35000000	     -5.23693377	      1.28492223	      3.40478194	      0.68983108	      1.23013250	     -0.82598094	     11.79291707	     -0.56306039	    -10.44208149	    -56.05237478	    -11.55338299	     -0.69952886	     20.58229624	     23.86275492	     12.80148683	     13.58744274	    -21.80020241	     -6.04085597	     -8.73129362	      7.81490835	     -4.19091408	     -4.75679998	      0.10013349
      2.35500000	     -5.24822026	      1.31633356	      3.53692635	      0.69552581	      1.23080486	     -0.82635053	     12.70323767	     -0.77085698	    -10.44835433	    -56.83224629	    -11.13391339	     -1.71362966	     19.31986240	     23.38833334	     12.87133717	     13.64259644	    -21.78897579	     -5.52982689	     -8.45320140	      7.94440224	     -4.18184180	     -4.79756479	     -0.01212731
      2.36000000	     -5.27615847	      1.32581410	      3.65381343	      0.70115463	      1.23146958	     -0.82669990	     13.63363547	     -0.92666112	    -10.40934933	    -57.50240825	    -10.56070495	     -2.78974603	     18.13207623	     22.93581610	     12.90785220	     13.68153052	    -21.76919018	     -5.00972951	     -8.15801908	      8.07325136	     -4.16230035	     -4.80692755	     -0.11761813
      2.36500000	     -5.28936991	      1.29844481	      3.75708199	      0.70668957	      1.23215005	     -0.82703914	     14.53952405	     -1.01354500	    -10.34182016	    -58.04732503	     -9.84516414	     -3.84665741	     16.85287549	     22.48344717	     12.89970591	     13.72783213	    -21.76934178	     -4.44392332	     -7.81392125	      8.18918617	     -4.16945160	     -4.77139293	     -0.16296302
